<svg xmlns="http://www.w3.org/2000/svg" viewBox="0 0 800 450">
  <!-- TODO: Gerçek ERP ekran görüntüsü yerine konulacak placeholder -->
  <defs>
    <linearGradient id="erpBg" x1="0" y1="0" x2="1" y2="1">
      <stop offset="0%" stop-color="#001F3F"/>
      <stop offset="100%" stop-color="#0a2a4f"/>
    </linearGradient>
  </defs>
  <rect width="800" height="450" fill="url(#erpBg)"/>

  <!-- Sidebar -->
  <rect x="0" y="0" width="170" height="450" fill="#000d1f" opacity="0.5"/>
  <rect x="22" y="32" width="100" height="14" rx="3" fill="#fff" opacity="0.8"/>
  <rect x="22" y="82" width="120" height="9" rx="2" fill="#fff" opacity="0.18"/>
  <rect x="22" y="108" width="100" height="9" rx="2" fill="#fff" opacity="0.18"/>
  <rect x="22" y="134" width="110" height="9" rx="2" fill="#fff" opacity="0.45"/>
  <rect x="22" y="160" width="90" height="9" rx="2" fill="#fff" opacity="0.18"/>
  <rect x="22" y="186" width="115" height="9" rx="2" fill="#fff" opacity="0.18"/>

  <!-- Üst bar -->
  <rect x="170" y="0" width="630" height="60" fill="#fff" opacity="0.06"/>
  <rect x="200" y="22" width="160" height="16" rx="3" fill="#fff" opacity="0.7"/>
  <circle cx="760" cy="30" r="14" fill="#fff" opacity="0.2"/>

  <!-- KPI kartları -->
  <g transform="translate(200, 90)">
    <rect width="170" height="92" rx="10" fill="#fff" opacity="0.12"/>
    <rect x="15" y="18" width="80" height="9" rx="2" fill="#fff" opacity="0.5"/>
    <rect x="15" y="38" width="120" height="22" rx="3" fill="#fff" opacity="0.85"/>
    <rect x="15" y="70" width="60" height="7" rx="2" fill="#4ade80"/>
  </g>
  <g transform="translate(390, 90)">
    <rect width="170" height="92" rx="10" fill="#fff" opacity="0.12"/>
    <rect x="15" y="18" width="80" height="9" rx="2" fill="#fff" opacity="0.5"/>
    <rect x="15" y="38" width="100" height="22" rx="3" fill="#fff" opacity="0.85"/>
    <rect x="15" y="70" width="60" height="7" rx="2" fill="#fbbf24"/>
  </g>
  <g transform="translate(580, 90)">
    <rect width="170" height="92" rx="10" fill="#fff" opacity="0.12"/>
    <rect x="15" y="18" width="80" height="9" rx="2" fill="#fff" opacity="0.5"/>
    <rect x="15" y="38" width="110" height="22" rx="3" fill="#fff" opacity="0.85"/>
    <rect x="15" y="70" width="60" height="7" rx="2" fill="#60a5fa"/>
  </g>

  <!-- Grafik alanı -->
  <g transform="translate(200, 210)">
    <rect width="370" height="200" rx="10" fill="#fff" opacity="0.1"/>
    <rect x="20" y="20" width="120" height="12" rx="3" fill="#fff" opacity="0.6"/>
    <polyline points="20,160 70,120 120,140 170,90 220,110 270,60 320,80 350,40"
              fill="none" stroke="#60a5fa" stroke-width="3" stroke-linecap="round" stroke-linejoin="round"/>
    <polyline points="20,180 70,160 120,170 170,140 220,150 270,120 320,130 350,100"
              fill="none" stroke="#fff" stroke-width="2" opacity="0.4" stroke-linecap="round" stroke-linejoin="round"/>
  </g>

  <!-- Yan liste -->
  <g transform="translate(590, 210)">
    <rect width="180" height="200" rx="10" fill="#fff" opacity="0.1"/>
    <rect x="14" y="18" width="80" height="10" rx="2" fill="#fff" opacity="0.6"/>
    <rect x="14" y="44" width="150" height="8" rx="2" fill="#fff" opacity="0.3"/>
    <rect x="14" y="62" width="130" height="8" rx="2" fill="#fff" opacity="0.3"/>
    <rect x="14" y="80" width="140" height="8" rx="2" fill="#fff" opacity="0.3"/>
    <rect x="14" y="98" width="120" height="8" rx="2" fill="#fff" opacity="0.3"/>
    <rect x="14" y="116" width="150" height="8" rx="2" fill="#fff" opacity="0.3"/>
    <rect x="14" y="134" width="135" height="8" rx="2" fill="#fff" opacity="0.3"/>
    <rect x="14" y="152" width="145" height="8" rx="2" fill="#fff" opacity="0.3"/>
    <rect x="14" y="170" width="125" height="8" rx="2" fill="#fff" opacity="0.3"/>
  </g>
</svg>
