<svg xmlns="http://www.w3.org/2000/svg" viewBox="0 0 800 450">
  <!-- TODO: POS gerçek ekran görüntüsüyle değiştirilecek -->
  <defs>
    <linearGradient id="posBg" x1="0" y1="0" x2="1" y2="1">
      <stop offset="0%" stop-color="#2C3E50"/>
      <stop offset="100%" stop-color="#001F3F"/>
    </linearGradient>
  </defs>
  <rect width="800" height="450" fill="url(#posBg)"/>

  <!-- Sol: ürün grid -->
  <g transform="translate(30, 30)">
    <rect width="430" height="390" rx="12" fill="#fff" opacity="0.08"/>
    <rect x="20" y="20" width="160" height="14" rx="3" fill="#fff" opacity="0.7"/>

    <!-- Ürün kartları -->
    <g>
      <rect x="20" y="60" width="120" height="100" rx="8" fill="#fff" opacity="0.16"/>
      <circle cx="80" cy="100" r="22" fill="#fbbf24" opacity="0.7"/>
      <rect x="35" y="135" width="90" height="8" rx="2" fill="#fff" opacity="0.6"/>
    </g>
    <g>
      <rect x="155" y="60" width="120" height="100" rx="8" fill="#fff" opacity="0.16"/>
      <circle cx="215" cy="100" r="22" fill="#4ade80" opacity="0.7"/>
      <rect x="170" y="135" width="90" height="8" rx="2" fill="#fff" opacity="0.6"/>
    </g>
    <g>
      <rect x="290" y="60" width="120" height="100" rx="8" fill="#fff" opacity="0.16"/>
      <circle cx="350" cy="100" r="22" fill="#60a5fa" opacity="0.7"/>
      <rect x="305" y="135" width="90" height="8" rx="2" fill="#fff" opacity="0.6"/>
    </g>

    <g>
      <rect x="20" y="180" width="120" height="100" rx="8" fill="#fff" opacity="0.16"/>
      <circle cx="80" cy="220" r="22" fill="#f472b6" opacity="0.7"/>
      <rect x="35" y="255" width="90" height="8" rx="2" fill="#fff" opacity="0.6"/>
    </g>
    <g>
      <rect x="155" y="180" width="120" height="100" rx="8" fill="#fff" opacity="0.16"/>
      <circle cx="215" cy="220" r="22" fill="#a78bfa" opacity="0.7"/>
      <rect x="170" y="255" width="90" height="8" rx="2" fill="#fff" opacity="0.6"/>
    </g>
    <g>
      <rect x="290" y="180" width="120" height="100" rx="8" fill="#fff" opacity="0.16"/>
      <circle cx="350" cy="220" r="22" fill="#fb923c" opacity="0.7"/>
      <rect x="305" y="255" width="90" height="8" rx="2" fill="#fff" opacity="0.6"/>
    </g>

    <g>
      <rect x="20" y="300" width="120" height="70" rx="8" fill="#fff" opacity="0.12"/>
      <rect x="155" y="300" width="120" height="70" rx="8" fill="#fff" opacity="0.12"/>
      <rect x="290" y="300" width="120" height="70" rx="8" fill="#fff" opacity="0.12"/>
    </g>
  </g>

  <!-- Sağ: sepet -->
  <g transform="translate(490, 30)">
    <rect width="280" height="390" rx="12" fill="#fff" opacity="0.1"/>
    <rect x="20" y="20" width="120" height="14" rx="3" fill="#fff" opacity="0.7"/>

    <rect x="20" y="60" width="240" height="32" rx="6" fill="#fff" opacity="0.12"/>
    <rect x="20" y="100" width="240" height="32" rx="6" fill="#fff" opacity="0.12"/>
    <rect x="20" y="140" width="240" height="32" rx="6" fill="#fff" opacity="0.12"/>
    <rect x="20" y="180" width="240" height="32" rx="6" fill="#fff" opacity="0.12"/>

    <line x1="20" y1="240" x2="260" y2="240" stroke="#fff" stroke-opacity="0.2" stroke-dasharray="4 4"/>

    <rect x="20" y="260" width="80" height="10" rx="2" fill="#fff" opacity="0.5"/>
    <rect x="180" y="258" width="80" height="14" rx="2" fill="#fff" opacity="0.9"/>

    <rect x="20" y="320" width="240" height="50" rx="10" fill="#4ade80"/>
    <text x="140" y="352" font-family="Inter, sans-serif" font-size="18" font-weight="700" fill="#001F3F" text-anchor="middle">ÖDEME AL</text>
  </g>
</svg>
