<svg xmlns="http://www.w3.org/2000/svg" viewBox="0 0 800 450">
  <!-- TODO: Stok yönetimi gerçek ekran görüntüsüyle değiştirilecek -->
  <defs>
    <linearGradient id="stokBg" x1="0" y1="0" x2="1" y2="1">
      <stop offset="0%" stop-color="#0a2a4f"/>
      <stop offset="100%" stop-color="#001F3F"/>
    </linearGradient>
  </defs>
  <rect width="800" height="450" fill="url(#stokBg)"/>

  <!-- Üst başlık -->
  <rect x="30" y="30" width="220" height="22" rx="3" fill="#fff" opacity="0.85"/>
  <rect x="30" y="62" width="160" height="11" rx="2" fill="#fff" opacity="0.45"/>

  <!-- Üst sağ: arama + filtre -->
  <rect x="500" y="30" width="200" height="38" rx="8" fill="#fff" opacity="0.1"/>
  <rect x="710" y="30" width="60" height="38" rx="8" fill="#4ade80"/>

  <!-- Tablo başlığı -->
  <rect x="30" y="105" width="740" height="42" rx="8" fill="#fff" opacity="0.08"/>
  <rect x="50" y="122" width="60" height="9" rx="2" fill="#fff" opacity="0.6"/>
  <rect x="180" y="122" width="80" height="9" rx="2" fill="#fff" opacity="0.6"/>
  <rect x="340" y="122" width="50" height="9" rx="2" fill="#fff" opacity="0.6"/>
  <rect x="460" y="122" width="70" height="9" rx="2" fill="#fff" opacity="0.6"/>
  <rect x="580" y="122" width="50" height="9" rx="2" fill="#fff" opacity="0.6"/>
  <rect x="700" y="122" width="60" height="9" rx="2" fill="#fff" opacity="0.6"/>

  <!-- Tablo satırları -->
  <g>
    <rect x="30" y="160" width="740" height="44" rx="6" fill="#fff" opacity="0.04"/>
    <rect x="50" y="180" width="100" height="9" rx="2" fill="#fff" opacity="0.7"/>
    <rect x="180" y="180" width="130" height="9" rx="2" fill="#fff" opacity="0.5"/>
    <rect x="340" y="180" width="50" height="9" rx="2" fill="#fff" opacity="0.7"/>
    <rect x="460" y="178" width="40" height="14" rx="3" fill="#4ade80"/>
    <rect x="580" y="180" width="45" height="9" rx="2" fill="#fff" opacity="0.7"/>
    <rect x="700" y="178" width="55" height="14" rx="3" fill="#fff" opacity="0.18"/>
  </g>
  <g>
    <rect x="30" y="210" width="740" height="44" rx="6" fill="#fff" opacity="0.04"/>
    <rect x="50" y="230" width="120" height="9" rx="2" fill="#fff" opacity="0.7"/>
    <rect x="180" y="230" width="100" height="9" rx="2" fill="#fff" opacity="0.5"/>
    <rect x="340" y="230" width="60" height="9" rx="2" fill="#fff" opacity="0.7"/>
    <rect x="460" y="228" width="40" height="14" rx="3" fill="#fbbf24"/>
    <rect x="580" y="230" width="55" height="9" rx="2" fill="#fff" opacity="0.7"/>
    <rect x="700" y="228" width="55" height="14" rx="3" fill="#fff" opacity="0.18"/>
  </g>
  <g>
    <rect x="30" y="260" width="740" height="44" rx="6" fill="#fff" opacity="0.04"/>
    <rect x="50" y="280" width="90" height="9" rx="2" fill="#fff" opacity="0.7"/>
    <rect x="180" y="280" width="140" height="9" rx="2" fill="#fff" opacity="0.5"/>
    <rect x="340" y="280" width="55" height="9" rx="2" fill="#fff" opacity="0.7"/>
    <rect x="460" y="278" width="40" height="14" rx="3" fill="#ef4444"/>
    <rect x="580" y="280" width="48" height="9" rx="2" fill="#fff" opacity="0.7"/>
    <rect x="700" y="278" width="55" height="14" rx="3" fill="#fff" opacity="0.18"/>
  </g>
  <g>
    <rect x="30" y="310" width="740" height="44" rx="6" fill="#fff" opacity="0.04"/>
    <rect x="50" y="330" width="110" height="9" rx="2" fill="#fff" opacity="0.7"/>
    <rect x="180" y="330" width="110" height="9" rx="2" fill="#fff" opacity="0.5"/>
    <rect x="340" y="330" width="65" height="9" rx="2" fill="#fff" opacity="0.7"/>
    <rect x="460" y="328" width="40" height="14" rx="3" fill="#4ade80"/>
    <rect x="580" y="330" width="50" height="9" rx="2" fill="#fff" opacity="0.7"/>
    <rect x="700" y="328" width="55" height="14" rx="3" fill="#fff" opacity="0.18"/>
  </g>
  <g>
    <rect x="30" y="360" width="740" height="44" rx="6" fill="#fff" opacity="0.04"/>
    <rect x="50" y="380" width="100" height="9" rx="2" fill="#fff" opacity="0.7"/>
    <rect x="180" y="380" width="130" height="9" rx="2" fill="#fff" opacity="0.5"/>
    <rect x="340" y="380" width="50" height="9" rx="2" fill="#fff" opacity="0.7"/>
    <rect x="460" y="378" width="40" height="14" rx="3" fill="#4ade80"/>
    <rect x="580" y="380" width="60" height="9" rx="2" fill="#fff" opacity="0.7"/>
    <rect x="700" y="378" width="55" height="14" rx="3" fill="#fff" opacity="0.18"/>
  </g>
</svg>
